# xmcd
# Track frame offsets:
# 150
# 19713
# 35945
# 49686
# 66954
# 82721
# 95306
# 110523
# 125426
# 142562
# 156164
# 171687
# 187590
#
# Disc length: 6556 seconds
# Revision: 0
# Processed by: cddbd v1.5.1PL2 Copyright (c) Steve Scherf et al.
# Submitted via: VisiTrax 2.9.10.228 - For more info visit www.synapsa.com
#
DISCID=a1199a0d
DTITLE=Dierks Bentley - Dierks Bentley
DYEAR=2003
DGENRE=Country
TTITLE0=What Was I Thinkin'
TTITLE1=Wish It Would Break
TTITLE2=Forget About You
TTITLE3=I Can Only Think Of One
TTITLE4=My Last Name
TTITLE5=Bartenders, Etc...
TTITLE6=Is Anybody Loving You These Days
TTITLE7=My Love Will Follw You
TTITLE8=How Am I Doin'
TTITLE9=Distant Shre
TTITLE10=I Bought The Shoes
TTITLE11=Whiskey tears
TTITLE12=Train Travelin'
EXTD=
EXTT0=
EXTT1=
EXTT2=
EXTT3=
EXTT4=
EXTT5=
EXTT6=
EXTT7=
EXTT8=
EXTT9=
EXTT10=
EXTT11=
EXTT12=
PLAYORDER=
